<svg width="158" height="46" viewBox="0 0 158 46" fill="none" xmlns="http://www.w3.org/2000/svg">
<path d="M70.91 34L61.76 22.99L70.67 12.91H75.77L65.84 23.86L65.87 21.97L76.1 34H70.91ZM58.16 34V12.91H62.24V34H58.16ZM81.287 26.17V22.84H86.177C86.817 22.84 87.397 22.71 87.917 22.45C88.437 22.19 88.847 21.82 89.147 21.34C89.447 20.84 89.597 20.24 89.597 19.54C89.597 18.86 89.447 18.27 89.147 17.77C88.847 17.27 88.437 16.89 87.917 16.63C87.397 16.37 86.817 16.24 86.177 16.24H81.287V12.91H86.597C87.937 12.91 89.137 13.18 90.197 13.72C91.277 14.26 92.127 15.03 92.747 16.03C93.367 17.01 93.677 18.18 93.677 19.54C93.677 20.9 93.367 22.08 92.747 23.08C92.127 24.06 91.277 24.82 90.197 25.36C89.137 25.9 87.937 26.17 86.597 26.17H81.287ZM78.287 34V12.91H82.367V34H78.287ZM96.5682 34V12.91H100.648V34H96.5682ZM104.976 34V12.91H109.056V34H104.976ZM118.206 34V12.91H122.286V34H118.206ZM107.556 24.91V21.31H119.346V24.91H107.556ZM132.357 34.3C131.078 34.3 129.938 34.03 128.938 33.49C127.958 32.95 127.188 32.2 126.628 31.24C126.068 30.28 125.788 29.17 125.788 27.91V19.51H129.748V27.82C129.748 28.42 129.848 28.94 130.048 29.38C130.248 29.8 130.548 30.12 130.948 30.34C131.348 30.56 131.818 30.67 132.357 30.67C133.178 30.67 133.818 30.42 134.278 29.92C134.738 29.42 134.968 28.72 134.968 27.82V19.51H138.898V27.91C138.898 29.19 138.618 30.31 138.058 31.27C137.518 32.23 136.748 32.98 135.748 33.52C134.768 34.04 133.638 34.3 132.357 34.3ZM150.067 34.3C149.027 34.3 148.087 34.08 147.247 33.64C146.407 33.2 145.737 32.6 145.237 31.84C144.737 31.08 144.467 30.23 144.427 29.29V24.13C144.467 23.19 144.737 22.35 145.237 21.61C145.757 20.85 146.437 20.26 147.277 19.84C148.117 19.42 149.047 19.21 150.067 19.21C151.407 19.21 152.607 19.54 153.667 20.2C154.727 20.86 155.557 21.76 156.157 22.9C156.777 24.04 157.087 25.33 157.087 26.77C157.087 28.19 156.777 29.47 156.157 30.61C155.557 31.75 154.727 32.65 153.667 33.31C152.607 33.97 151.407 34.3 150.067 34.3ZM149.407 30.67C150.127 30.67 150.757 30.51 151.297 30.19C151.857 29.85 152.287 29.39 152.587 28.81C152.907 28.21 153.067 27.52 153.067 26.74C153.067 25.98 152.907 25.31 152.587 24.73C152.287 24.13 151.857 23.67 151.297 23.35C150.737 23.01 150.097 22.84 149.377 22.84C148.657 22.84 148.017 23.01 147.457 23.35C146.917 23.67 146.487 24.13 146.167 24.73C145.867 25.31 145.717 25.98 145.717 26.74C145.717 27.52 145.867 28.21 146.167 28.81C146.487 29.39 146.927 29.85 147.487 30.19C148.047 30.51 148.687 30.67 149.407 30.67ZM142.027 34V12.31H145.957V23.08L145.297 26.56L145.927 30.1V34H142.027Z" fill="white"/>
<rect x="29.6812" width="17" height="36" rx="8.5" transform="rotate(55.536 29.6812 0)" fill="white"/>
<path d="M32.5879 27.1417C36.4078 29.8704 37.2923 35.1792 34.5636 38.999C31.8348 42.8189 26.5261 43.7035 22.7062 40.9747L7.50909 30.1186C3.6892 27.3899 2.80465 22.0812 5.53339 18.2613C8.26213 14.4414 13.5708 13.5569 17.3907 16.2856L32.5879 27.1417Z" fill="white"/>
<circle cx="36" cy="8" r="4" fill="#6F65E8"/>
</svg>
